<svg xmlns="http://www.w3.org/2000/svg" width="92" height="92" fill="none"><circle cx="37" cy="53" r="37" fill="#46A358" fill-opacity=".13"/><g fill="#000" fill-opacity=".64" clip-path="url(#a)"><path d="M22.249 40.777c16.773-1.753 33.69.937 50.42-1.487.782-.115.45-1.298-.328-1.184-16.613 2.404-33.435-.299-50.092 1.442-.782.082-.79 1.31 0 1.229Z"/><path d="M22.084 39.572c-1.637.508-1.432 2.638-.564 3.768 1.424 1.851 4.62 1.892 6.706 1.695.786-.073.79-1.302 0-1.228-1.35.127-2.748.114-4.06-.27-.683-.201-1.403-.484-1.794-1.123-.201-.331-.588-1.462.041-1.654.757-.238.432-1.425-.329-1.188ZM69.782 39.675c.868-.053 1.707-.2 2.57-.316 1.37-.184 2.074.185 2.313 1.618.197 1.192-.556 1.54-1.617 1.876-.502.16-1.028.258-1.547.36a26.63 26.63 0 0 1-4.188.455c-.79.028-.794 1.257 0 1.228 2.407-.086 9.166-.176 8.903-3.964-.066-.946-.983-2.252-1.843-2.678-1.284-.64-3.283.11-4.596.192-.785.05-.79 1.278.005 1.229Z"/><path d="M24.055 44.773c-.169 2.6-3.131 4.071-4.703 5.857a16.792 16.792 0 0 0-2.908 4.746c-1.514 3.694-1.802 7.834-1.033 11.729 1.584 7.99 7.648 14.583 15.222 17.413.745.278 1.066-.91.33-1.184-7.867-2.94-13.98-10.307-14.663-18.756-.325-4.013.526-8.19 2.777-11.57 1.868-2.8 5.977-4.594 6.212-8.235.05-.786-1.185-.786-1.234 0ZM70.823 44.249c0 3.231 2.357 5.258 4.755 7.064 2.061 1.548 3.658 3.055 4.674 5.484.884 2.109 1.374 4.386 1.485 6.667.403 8.391-4.493 16.18-12.017 19.846-.712.348-.09 1.409.621 1.06 6.99-3.403 11.918-10.32 12.577-18.068.333-3.92-.35-8.236-2.35-11.671-2.2-3.789-8.511-5.525-8.516-10.382.005-.79-1.23-.79-1.23 0Z"/><path d="M30.267 83.617c-.798 1.765.633 3.288 2.41 3.37 1.93.095 3.967-.352 5.9-.434 2.242-.098 4.484-.102 6.726-.07 8.368.128 16.732.762 25.063-.368.284-.037.428-.348.452-.594a4.286 4.286 0 0 0-.193-1.843c-.235-.753-1.424-.43-1.189.328.21.496.26 1.003.148 1.515.152-.196.3-.393.453-.594-6.496.881-13.05.66-19.583.455-3.168-.098-6.34-.188-9.507-.135a85.597 85.597 0 0 0-4.345.18c-.79.053-1.575.127-2.361.205-.58.057-3.797.553-2.913-1.405.325-.708-.736-1.33-1.061-.61ZM22.08 51.224c-5.027 6.155-5.418 14.747-.905 21.3.222.323.757.016.535-.312-4.349-6.31-4.048-14.608.81-20.558.243-.3-.189-.737-.44-.43ZM22.413 74.804c.404.581.864 1.118 1.378 1.605.288.27.725-.16.437-.434a9.79 9.79 0 0 1-1.284-1.478c-.222-.324-.757-.02-.53.307ZM25.865 78.338c.399 0 .399-.614 0-.614-.4 0-.4.614 0 .614ZM69.63 44.282c-.317 1.18-.589 2.367-.124 3.547.432 1.093 1.308 2.08 2.053 2.985 1.785 2.163 5.439 4.345 5.611 7.36.02.393.638.397.617 0-.127-2.257-1.797-3.703-3.336-5.169a30.288 30.288 0 0 1-2.781-3.022c-.576-.725-1.226-1.49-1.56-2.363-.406-1.06-.172-2.105.112-3.17.103-.385-.494-.549-.593-.168ZM77.438 59.598l.259 2.359c.041.389.662.393.617 0l-.26-2.359c-.04-.389-.657-.393-.616 0ZM77.495 63.575c.046.23.009.446-.078.66-.061.155.07.335.214.376.177.049.317-.062.379-.213a1.72 1.72 0 0 0 .078-.987c-.07-.385-.667-.221-.593.164ZM50.742 59.082c1.473-2.785 4.246-4.607 7.467-4.447 3.834.188 7.866 3.51 5.18 7.433-1.576 2.297-4.406 3.784-6.492 5.594-2.316 2.01-4.435 4.226-6.39 6.593-.501.606.367 1.479.873.869 2.978-3.608 6.348-6.66 10.05-9.51 2.473-1.908 5.209-4.804 3.707-8.158-1.242-2.776-4.673-4.14-7.566-4.058-3.406.098-6.327 2.097-7.898 5.062-.367.7.699 1.323 1.07.622Z"/><path d="M50.45 58.129c-2.637-2.953-5.928-5.996-10.198-5.775-3.168.164-5.896 2.556-6.352 5.705-.564 3.837 2.316 7.204 5.122 9.427 3.447 2.732 8.647 3.678 11.227 7.38.448.647 1.518.033 1.065-.618-1.608-2.31-3.95-3.498-6.434-4.694-3.16-1.519-6.274-3.399-8.306-6.331-2.267-3.264-1.893-8.256 2.501-9.452 4.3-1.167 7.92 2.338 10.499 5.226.53.593 1.403-.279.876-.868Z"/></g><path stroke="#46A358" stroke-linecap="round" stroke-width="2" d="M34.937 15.612c-2.27-6.227 1.853-9.199 4.454-10.569 2.6-1.37 7.077-2.402 10.898-.94 3.821 1.462 5.34 3.122 6.306 5.9 1.382 3.972-.755 7.773-6.94 11.029-6.184 3.256-6.111 6.02-5.797 7.59.314 1.57 3.72 3.72 1.08 8.13M39.935 33.872c-1.296-.586-4.084-1.924-8.398-1.084M38.063 29.02c-2.614-3.794-6.916-8.602-16.11-5.82M53.49 33.872c1.296-.586 4.084-1.924 8.398-1.084M55.362 29.02c2.615-3.794 6.916-8.602 16.11-5.82"/><defs><clipPath id="a"><path fill="#fff" d="M15 38h68v49H15z"/></clipPath></defs></svg>