<svg width="63" height="21" viewBox="0 0 63 21" fill="none" xmlns="http://www.w3.org/2000/svg">
<path d="M0.766059 15.46V1.367H5.34308C6.27977 1.367 7.11712 1.51602 7.85512 1.81406C8.59312 2.0979 9.175 2.50948 9.60077 3.04879C10.0265 3.5881 10.2394 4.24804 10.2394 5.02861C10.2394 5.95111 10.0053 6.7246 9.53691 7.34906C9.06856 7.95933 8.41571 8.42058 7.57837 8.73281C6.74102 9.03085 5.76885 9.17986 4.66185 9.17986H2.83104V15.46H0.766059ZM2.83104 8.5625H4.72571C5.44952 8.5625 6.03141 8.43477 6.47137 8.17931C6.91133 7.92385 7.24485 7.60452 7.47193 7.22133C7.699 6.83813 7.84802 6.45494 7.91898 6.07175C8.00414 5.68856 8.04671 5.37633 8.04671 5.13506C8.04671 5.0499 8.02542 4.8796 7.98285 4.62413C7.95446 4.36867 7.86221 4.07773 7.7061 3.75131C7.56417 3.42488 7.33 3.11265 7.00358 2.81461C6.69135 2.51658 6.25139 2.2895 5.68369 2.13338C5.24373 2.13338 4.747 2.16886 4.1935 2.23983C3.64 2.31079 3.18585 2.39594 2.83104 2.49529V8.5625ZM11.6246 15.46V0.919941H13.4128V15.46H11.6246ZM22.3868 15.7367L20.6624 14.1827C20.1515 14.651 19.6476 15.0271 19.1509 15.3109C18.6684 15.5806 18.1362 15.7154 17.5543 15.7154C16.9724 15.7154 16.4473 15.5238 15.9789 15.1406C15.5106 14.7574 15.2764 14.211 15.2764 13.5014C15.2764 12.9479 15.4609 12.4867 15.8299 12.1177C16.1989 11.7345 16.6673 11.4293 17.235 11.2023C17.8026 10.9752 18.3916 10.8049 19.0019 10.6913C19.6122 10.5778 20.1586 10.5068 20.6411 10.4785V8.47735C20.6411 7.29938 19.9599 6.7104 18.5974 6.7104C18.2426 6.7104 17.831 6.75298 17.3627 6.83813C16.9085 6.9091 16.3976 7.03683 15.8299 7.22133L15.6383 6.68911C15.7944 6.56138 16.057 6.41236 16.426 6.24206C16.795 6.07175 17.2208 5.92273 17.7033 5.795C18.1858 5.65308 18.6755 5.58211 19.1722 5.58211C19.9812 5.58211 20.6056 5.70275 21.0456 5.94402C21.4856 6.17109 21.7978 6.46913 21.9823 6.83813C22.1668 7.19294 22.2803 7.56904 22.3229 7.96642C22.3655 8.34961 22.3868 8.69733 22.3868 9.00956V12.6286C22.3868 13.1111 22.4506 13.5085 22.5784 13.8207C22.7203 14.133 22.8764 14.3742 23.0467 14.5446C23.2312 14.7149 23.3802 14.8426 23.4938 14.9277L22.3868 15.7367ZM18.3632 14.7362C18.7039 14.6652 19.0445 14.5304 19.3851 14.3317C19.7399 14.1188 20.0379 13.9059 20.2792 13.693C20.5205 13.4659 20.6411 13.3027 20.6411 13.2034V11.0107C19.5767 11.0816 18.7251 11.3158 18.0865 11.7132C17.462 12.0964 17.1498 12.508 17.1498 12.9479C17.1498 13.3879 17.2633 13.7711 17.4904 14.0975C17.7317 14.4097 18.0226 14.6226 18.3632 14.7362ZM25.2927 15.46V8.77538C25.2927 8.27865 25.2217 7.88127 25.0798 7.58323C24.9521 7.271 24.8031 7.02973 24.6328 6.85942C24.4624 6.67492 24.3205 6.5401 24.207 6.45494L25.2927 5.64598L27.0383 7.20004C27.5635 6.70331 28.0531 6.31302 28.5073 6.02917C28.9756 5.73113 29.522 5.58211 30.1465 5.58211C30.4729 5.58211 30.8277 5.66727 31.2109 5.83758C31.6083 6.00788 31.9489 6.32721 32.2327 6.79556C32.5166 7.24971 32.6585 7.91675 32.6585 8.79667V15.46H30.849V9.00956C30.849 8.34252 30.7283 7.83159 30.4871 7.47679C30.26 7.10779 29.8342 6.92329 29.2098 6.92329C28.5995 6.92329 27.897 7.32067 27.1022 8.11544V15.46H25.2927ZM37.7926 15.7154C37.2107 15.7154 36.7211 15.5451 36.3237 15.2045C35.9263 14.8639 35.7276 14.2891 35.7276 13.4801V6.60396L34.0032 6.26335V5.83758H35.7276V5.07119L37.5158 3.77259V5.83758H40.0491V6.60396H37.5158V13.5866C37.5158 13.984 37.5939 14.2962 37.75 14.5233C37.9203 14.7503 38.2325 14.8639 38.6867 14.8639C38.8854 14.8639 39.1054 14.8355 39.3466 14.7787C39.5879 14.7078 39.8221 14.6297 40.0491 14.5446V15.1406C39.7369 15.2826 39.3821 15.4103 38.9847 15.5238C38.6015 15.6516 38.2041 15.7154 37.7926 15.7154ZM40.4593 20.1434L40.7574 18.5894C41.5521 18.561 42.2263 18.3836 42.7798 18.0572C43.3475 17.7307 43.8229 17.3192 44.2061 16.8224C44.5893 16.3399 44.9015 15.8502 45.1428 15.3535L40.8212 5.83758H42.7159L45.9731 13.0544L48.4851 5.83758H49.2941L45.6537 15.7793C45.3415 16.6308 44.9228 17.383 44.3977 18.0359C43.8726 18.6887 43.2694 19.1996 42.5882 19.5686C41.9211 19.9376 41.2115 20.1292 40.4593 20.1434ZM50.9667 6.28463L50.3707 2.53786V1.04767H52.095V2.53786L51.4777 6.28463H50.9667ZM53.3475 15.46L56.8813 10.9681L53.4113 5.83758H55.5189L57.9458 9.71208L60.7984 5.83758H61.8415L58.3502 10.1591L62.1609 15.46H60.0533L57.3071 11.4364L54.3693 15.46H53.3475Z" fill="black"/>
</svg>
